<svg width="105" height="29" viewBox="0 0 105 29" fill="none" xmlns="http://www.w3.org/2000/svg">
<path d="M18.4 20.896C17.184 25.824 12.928 28.224 8.608 28.224C3.488 28.224 0 24.864 0 19.936C0 16.512 1.696 13.728 4.384 13.76C5.44 13.76 5.952 14.208 5.952 14.944C5.952 15.648 5.472 16.064 4.48 16.064C2.304 16.064 0.96 18.016 0.96 20.48C0.96 24.352 4.224 27.296 8.512 27.296C11.84 27.296 15.072 25.536 15.936 21.632C17.76 13.6 5.92 12.64 6.624 5.664C6.976 2.208 9.856 0 13.152 0C15.712 0 17.024 1.344 17.888 1.344C18.272 1.344 18.784 1.056 18.976 0H19.744L18.368 6.88H17.824C17.888 3.264 16.352 0.799999 13.504 0.799999C11.296 0.799999 9.504 2.304 9.152 4.352C8.096 10.336 20.672 11.616 18.4 20.896Z" fill="black"/>
<path d="M23.0667 15.2C22.2987 19.168 23.2268 22.24 25.7868 22.24C28.1548 22.24 30.0107 19.584 30.7148 16C31.5468 11.904 30.4268 8.864 27.9307 8.864C25.5307 8.864 23.7707 11.712 23.0667 15.2ZM25.4028 23.04C22.0108 23.04 19.1628 20.448 20.1548 15.488C21.0508 11.072 24.3467 8.032 28.4107 8.032C32.4748 8.032 34.5548 11.104 33.6908 15.52C32.6988 20.48 28.7948 23.04 25.4028 23.04Z" fill="black"/>
<path d="M42.6227 8.064C46.0787 8.064 47.0388 10.688 46.7508 12.256C46.5588 13.184 45.8868 13.824 45.2148 13.824C44.5108 13.824 44.0628 13.088 44.3188 11.712C44.5748 10.208 44.1268 8.832 42.4308 8.832C39.9348 8.832 37.9508 11.84 37.3428 14.848C36.7028 17.984 37.5028 21.152 40.6388 21.152C42.7188 21.152 44.6387 19.776 45.7267 17.792H46.1108C44.5108 21.216 41.6628 23.136 38.8468 23.136C35.0068 23.136 33.8228 19.616 34.5588 16C35.3268 12.096 38.3027 8.064 42.6227 8.064Z" fill="black"/>
<path d="M50.459 2.528C50.715 1.216 51.643 0.32 52.731 0.32C53.819 0.32 54.395 1.216 54.107 2.528C53.851 3.84 52.955 4.736 51.835 4.736C50.747 4.736 50.203 3.84 50.459 2.528ZM47.419 20.768L49.179 11.808C49.403 10.72 49.019 10.432 48.251 10.432C47.995 10.432 47.739 10.464 47.419 10.496C47.163 10.528 47.131 10.016 47.387 9.92L51.963 8.128C52.347 8 52.731 8.192 52.635 8.736L50.331 20.288C50.171 21.12 50.363 21.408 50.715 21.408C51.419 21.408 52.251 20.32 53.179 18.72L53.435 18.848C52.475 20.992 50.971 23.04 49.083 23.04C47.867 23.04 47.131 22.176 47.419 20.768Z" fill="black"/>
<path d="M57.1128 15.84C56.4088 18.816 56.9848 20.672 58.5848 20.672C60.6008 20.672 62.6488 17.696 64.0247 12.544L64.3447 10.912C64.5047 9.728 64.1848 8.864 62.8408 8.864C59.9928 8.864 57.8808 12.64 57.1128 15.84ZM62.3927 20.768L63.0968 17.088C61.5288 20.512 59.4167 23.072 56.9207 23.072C54.4247 23.072 53.3367 20.512 54.1367 16.832C55.1607 12.32 58.5208 8.064 62.4888 8.064C63.5768 8.064 64.3767 8.384 64.7927 8.736L64.8568 8.352L67.6728 8.384L65.3047 20.288C65.1447 21.12 65.3368 21.408 65.6888 21.408C66.3928 21.408 67.2248 20.32 68.1848 18.72L68.4408 18.848C67.4488 20.992 65.9448 23.04 64.0888 23.04C62.8408 23.04 62.1047 22.176 62.3927 20.768Z" fill="black"/>
<path d="M69.8783 20.768L73.2383 4C73.4623 2.912 73.0462 2.624 72.3102 2.624C72.0542 2.624 71.7982 2.656 71.4782 2.688C71.2222 2.72 71.1903 2.176 71.4463 2.08L76.0222 0.32C76.4062 0.16 76.7903 0.384001 76.6943 0.927999L72.7903 20.288C72.6303 21.12 72.8222 21.408 73.1742 21.408C73.8782 21.408 74.7103 20.32 75.6383 18.72L75.8942 18.848C74.9342 20.992 73.4303 23.04 71.5423 23.04C70.3263 23.04 69.5903 22.176 69.8783 20.768Z" fill="black"/>
<path d="M81.004 2.528C81.26 1.216 82.188 0.32 83.276 0.32C84.364 0.32 84.94 1.216 84.652 2.528C84.396 3.84 83.5 4.736 82.38 4.736C81.292 4.736 80.748 3.84 81.004 2.528ZM77.964 20.768L79.724 11.808C79.948 10.72 79.564 10.432 78.796 10.432C78.54 10.432 78.284 10.464 77.964 10.496C77.708 10.528 77.676 10.016 77.932 9.92L82.508 8.128C82.892 8 83.276 8.192 83.18 8.736L80.876 20.288C80.716 21.12 80.908 21.408 81.26 21.408C81.964 21.408 82.796 20.32 83.724 18.72L83.98 18.848C83.02 20.992 81.516 23.04 79.628 23.04C78.412 23.04 77.676 22.176 77.964 20.768Z" fill="black"/>
<path d="M91.0887 1.472L89.7127 8.416L93.2008 8.384L93.0407 9.216L89.5527 9.248L87.5047 19.424C87.3127 20.416 87.5687 21.152 88.4967 21.152C89.3607 21.152 90.1608 20.48 90.8008 18.944H91.2807C90.3847 21.568 88.5287 23.04 86.8327 23.04C85.2327 23.04 84.2088 21.696 84.5928 19.616L86.6727 9.216H84.7527L84.9128 8.384C87.2168 8.384 88.7527 7.168 90.2887 1.472H91.0887Z" fill="black"/>
<path d="M95.3097 12.672C96.2057 13.12 97.6458 13.6 98.9258 13.6C100.206 13.6 101.358 13.12 101.646 11.648C101.966 10.08 101.07 8.896 99.5337 8.896C97.7097 8.896 96.2057 10.56 95.3097 12.672ZM91.8537 15.968C92.8137 11.232 96.3338 8.064 99.9818 8.064C102.478 8.064 104.942 9.536 104.43 12C104.046 13.92 102.286 14.592 100.238 14.592C98.4777 14.592 96.5258 14.112 95.0218 13.44C94.8298 13.952 94.7018 14.464 94.6058 14.976C93.8698 18.624 95.2458 21.152 97.9658 21.152C99.9818 21.152 101.902 19.776 102.99 17.792H103.406C101.806 21.216 98.9578 23.136 96.1738 23.136C92.7818 23.136 90.9897 20.288 91.8537 15.968Z" fill="black"/>
</svg>
